<svg width="512" height="512" viewBox="0 0 512 512" fill="none" xmlns="http://www.w3.org/2000/svg">
<g clip-path="url(#clip0_0_16)">
<path d="M128.374 211.773H243.006C247.461 211.773 251.193 208.169 251.193 203.604C251.193 199.159 247.581 195.435 243.006 195.435H128.374C123.919 195.435 120.186 199.039 120.186 203.604C120.186 208.169 123.919 211.773 128.374 211.773Z" fill="blue"/>
<path d="M244.812 262.347H192.072C187.616 262.347 183.884 265.951 183.884 270.516C183.884 274.961 187.496 278.685 192.072 278.685H244.691C249.147 278.685 252.879 275.081 252.879 270.516C253 265.951 249.267 262.347 244.812 262.347Z" fill="blue"/>
<path d="M128.374 144.86H276.48C280.935 144.86 284.668 141.256 284.668 136.692C284.668 132.247 281.055 128.523 276.48 128.523H128.374C124.039 128.643 120.427 132.127 120.427 136.451C120.306 141.136 123.919 144.86 128.374 144.86Z" fill="blue"/>
<path d="M407.969 229.312C407.969 229.312 407.849 229.192 407.728 229.192C392.918 223.185 382.562 226.789 372.327 222.344C363.778 218.38 363.056 214.416 362.935 212.614C362.935 209.61 364.862 206.006 372.207 202.763C375.94 201.081 380.274 200.24 385.091 200C385.813 200.24 386.536 200.24 387.138 200.24C387.74 200.24 388.342 200.12 388.944 200C398.818 200.481 407.367 202.523 415.073 206.127C419.167 208.049 423.984 206.367 426.031 202.282C427.957 198.198 426.272 193.393 422.178 191.471C413.99 187.627 405.2 185.224 395.446 184.143V179.338C395.446 174.893 391.834 171.169 387.258 171.169C382.803 171.169 379.07 174.773 379.07 179.338V184.143C360.768 186.545 347.161 196.997 346.559 212.013C346.319 219.341 350.292 230.032 365.584 237C378.468 243.006 390.871 239.523 401.346 244.088C409.414 247.692 410.498 251.776 410.618 253.818C410.257 256.701 408.692 260.425 401.346 263.549C388.222 269.195 370.04 265.591 357.637 260.065C353.543 258.263 348.727 260.065 346.8 264.149C344.874 268.234 346.8 273.039 350.894 274.961C359.805 279.045 369.317 281.448 379.07 282.409V287.695C379.07 292.14 382.683 295.864 387.258 295.864C391.714 295.864 395.446 292.26 395.446 287.695V282.169C413.388 279.406 426.151 269.075 426.994 254.539C426.994 254.179 426.994 253.818 426.994 253.458C426.633 246.13 422.9 236.039 407.969 229.312Z" fill="blue"/>
<path d="M402.069 400.737H394.844V345.117C409.053 344.156 422.9 340.432 435.664 334.185L449.752 326.016C479.493 305.834 499 271.838 499 233.276C499 174.172 453.003 125.64 394.844 121.435V37.3442C394.844 20.7663 381.238 7.19159 364.621 7.19159H154.744C152.577 7.19159 150.53 8.0325 148.964 9.59419L66.7234 91.6429C65.158 93.2046 64.3151 95.2468 64.3151 97.4091V291.659L15.9098 349.922C11.4546 355.208 15.3077 363.256 22.1712 363.256H39.5104V456.117C39.5104 467.529 48.9025 476.899 60.3416 476.899H187.255C190.988 492.276 204.835 503.808 221.452 503.808C238.069 503.808 251.916 492.276 255.649 476.899H324.042C327.775 492.276 341.622 503.808 358.239 503.808C374.856 503.808 388.703 492.276 392.436 476.899H424.586C429.041 476.899 432.774 473.295 432.774 468.73V431.37C432.774 414.432 418.926 400.737 402.069 400.737ZM386.656 137.532C439.637 137.532 482.624 180.539 482.624 233.396C482.624 286.253 439.517 329.26 386.656 329.26C333.675 329.26 290.568 286.253 290.568 233.396C290.568 180.419 333.675 137.532 386.656 137.532ZM146.556 35.0617V75.5455C146.556 83.1136 140.295 89.3604 132.709 89.3604H92.1302L146.556 35.0617ZM80.5707 105.578H132.709C149.326 105.578 162.932 92.0033 162.932 75.4253V23.5292H364.621C372.327 23.5292 378.468 29.776 378.468 37.3442V121.435C320.31 125.64 274.313 174.172 274.313 233.276C274.313 292.38 320.31 340.912 378.468 345.117V400.737H376.301L352.941 360.253C351.496 357.73 348.727 356.169 345.837 356.169H265.643C263.114 356.169 260.826 357.25 259.261 359.292L225.907 401.338L195.925 406.143V363.377H213.264C220.127 363.377 223.981 355.328 219.525 350.042L123.919 234.958C120.668 230.993 114.647 230.993 111.276 234.958L80.4503 272.078V105.578H80.5707ZM39.5104 347.159L117.657 252.977L195.804 347.159H39.5104ZM147.158 438.698V460.562H60.3416C57.9333 460.562 55.8864 458.519 55.8864 456.117V363.497H179.669V408.906L171.722 410.227C157.514 412.39 147.158 424.403 147.158 438.698ZM221.332 487.471C210.976 487.471 202.547 479.062 202.547 468.73C202.547 458.399 210.976 449.99 221.332 449.99C231.687 449.99 240.116 458.399 240.116 468.73C240.236 479.062 231.687 487.471 221.332 487.471ZM358.239 487.471C347.884 487.471 339.455 479.062 339.455 468.73C339.455 458.399 347.884 449.99 358.239 449.99C368.595 449.99 377.023 458.399 377.023 468.73C377.023 479.062 368.595 487.471 358.239 487.471ZM416.398 460.562H392.436C388.703 445.185 374.856 433.653 358.239 433.653C341.622 433.653 327.775 445.185 324.042 460.562H255.649C251.916 445.185 238.069 433.653 221.452 433.653C204.835 433.653 190.988 445.185 187.255 460.562H163.654V438.698C163.654 432.451 168.11 427.166 174.251 426.204L231.687 416.834C233.734 416.474 235.54 415.393 236.744 413.831L269.616 372.386H341.141L364.501 412.87C365.946 415.393 368.715 416.954 371.605 416.954H402.069C410.016 416.954 416.398 423.321 416.398 431.25V460.562Z" fill="blue"/>
</g>
<defs>
<clipPath id="clip0_0_16">
<rect width="512" height="512" fill="blue"/>
</clipPath>
</defs>
</svg>
