<svg width="512" height="512" viewBox="0 0 512 512" fill="none" xmlns="http://www.w3.org/2000/svg">
<path d="M216.312 224.492C216.312 224.492 198.589 224.401 180.563 233.369C162.628 242.336 144.208 261.877 144.208 296.687V424.839C144.216 426.958 145.061 428.987 146.56 430.485C148.058 431.984 150.088 432.829 152.206 432.837H264.604C266.723 432.829 268.753 431.984 270.251 430.485C271.749 428.987 272.594 426.958 272.602 424.839C272.606 423.784 272.402 422.74 272.003 421.764C271.603 420.789 271.015 419.901 270.272 419.153C269.529 418.405 268.647 417.81 267.674 417.403C266.702 416.996 265.658 416.784 264.604 416.78H160.386V296.505C160.386 267.118 173.898 254.697 188.016 247.426C202.134 240.367 216.464 240.276 216.464 240.276H296.748C296.748 240.276 311.078 240.367 325.196 247.426C339.314 254.485 352.826 266.967 352.826 296.505V416.78H328.74C327.686 416.784 326.643 416.996 325.67 417.403C324.698 417.81 323.815 418.405 323.072 419.153C322.33 419.901 321.742 420.789 321.342 421.764C320.942 422.74 320.738 423.784 320.742 424.839C320.75 426.958 321.595 428.987 323.094 430.485C324.592 431.984 326.622 432.829 328.74 432.837H360.854C361.908 432.841 362.953 432.637 363.929 432.237C364.904 431.838 365.791 431.249 366.54 430.507C367.288 429.764 367.883 428.881 368.29 427.909C368.697 426.936 368.909 425.893 368.913 424.839V296.687C368.913 261.847 350.341 242.458 332.255 233.369C314.32 224.401 296.506 224.492 296.506 224.492H216.312Z" fill="blue"/>
<path d="M296.596 418.083C295.537 418.079 294.487 418.284 293.508 418.688C292.528 419.092 291.638 419.685 290.889 420.434C290.14 421.183 289.547 422.073 289.143 423.053C288.739 424.032 288.534 425.082 288.538 426.141C288.542 427.196 288.753 428.239 289.16 429.211C289.568 430.184 290.162 431.067 290.911 431.81C291.659 432.552 292.546 433.14 293.522 433.54C294.497 433.94 295.542 434.144 296.596 434.14C298.715 434.132 300.745 433.286 302.243 431.788C303.741 430.29 304.587 428.26 304.595 426.141C304.599 425.087 304.395 424.042 303.995 423.067C303.595 422.091 303.007 421.204 302.265 420.456C301.522 419.707 300.639 419.113 299.666 418.705C298.694 418.298 297.651 418.087 296.596 418.083ZM208.133 321.136C206.109 321.196 204.183 322.018 202.74 323.438C201.993 324.184 201.401 325.07 200.997 326.044C200.593 327.019 200.385 328.064 200.385 329.119C200.385 330.174 200.593 331.219 200.997 332.194C201.401 333.168 201.993 334.054 202.74 334.799L242.73 374.79C243.476 375.537 244.362 376.129 245.336 376.533C246.311 376.937 247.356 377.145 248.411 377.145C249.466 377.145 250.511 376.937 251.486 376.533C252.46 376.129 253.346 375.537 254.091 374.79C255.581 373.287 256.416 371.256 256.416 369.14C256.416 367.024 255.581 364.993 254.091 363.49L214.101 323.499C213.324 322.734 212.4 322.136 211.384 321.74C210.368 321.344 209.283 321.159 208.193 321.197L208.133 321.136Z" fill="blue"/>
<path d="M302.959 296.596C300.918 296.799 299.031 297.774 297.687 299.323L241.64 363.55C240.247 365.151 239.544 367.239 239.686 369.357C239.828 371.474 240.803 373.45 242.397 374.851C243.995 376.247 246.08 376.955 248.197 376.819C250.315 376.682 252.292 375.713 253.698 374.123L309.745 309.896C311.138 308.295 311.84 306.207 311.698 304.09C311.556 301.972 310.582 299.997 308.987 298.596C308.167 297.881 307.209 297.34 306.172 297.007C305.136 296.674 304.042 296.554 302.959 296.657V296.596ZM256.606 80.2839C239.596 80.3636 223.306 87.156 211.278 99.1837C199.251 111.211 192.458 127.502 192.379 144.511C192.379 179.957 221.19 208.738 256.606 208.738C292.052 208.738 320.833 179.927 320.833 144.511C320.833 109.065 292.022 80.2839 256.606 80.2839ZM256.606 96.3104C283.266 96.3104 304.776 117.76 304.776 144.481C304.776 171.141 283.327 192.651 256.606 192.651C229.946 192.651 208.436 171.202 208.436 144.481C208.436 118.548 229.461 96.3104 256.606 96.3104ZM80.284 264.483C80.284 264.483 66.5903 264.392 52.6542 271.36C38.7181 278.328 24.2064 293.93 24.2064 320.742V400.723C24.2064 405.146 27.7813 408.752 32.2045 408.782H152.479C154.616 408.782 156.666 407.933 158.177 406.422C159.689 404.91 160.538 402.861 160.538 400.723V296.505C160.538 288.659 161.628 282.145 163.386 276.45C163.709 275.393 163.81 274.281 163.684 273.184C163.558 272.086 163.207 271.027 162.652 270.071C162.098 269.116 161.352 268.285 160.461 267.631C159.571 266.977 158.555 266.514 157.478 266.27C153.236 265.149 152.509 264.452 144.511 264.452L80.284 264.483ZM80.284 280.509H144.208C144.208 280.509 146.238 280.812 146.753 280.873C145.784 285.902 144.511 290.628 144.511 296.566V392.907H40.2935V320.803C40.2935 299.414 49.7761 290.961 59.8646 285.963C69.9531 280.964 80.3446 280.752 80.3446 280.752L80.284 280.509ZM112.095 152.388C85.6161 152.388 63.9243 174.019 63.9243 200.558C63.9243 227.037 85.5555 248.729 112.095 248.729C138.634 248.729 160.265 227.098 160.265 200.558C160.265 174.08 138.634 152.388 112.095 152.388ZM112.095 168.415C129.909 168.415 144.208 182.684 144.208 200.528C144.208 218.342 129.939 232.642 112.095 232.642C94.2504 232.642 79.9811 218.372 79.9811 200.528C79.9811 182.714 94.2504 168.415 112.095 168.415ZM354.462 266.301C353.382 266.54 352.363 267.001 351.47 267.654C350.578 268.307 349.83 269.138 349.275 270.094C348.72 271.051 348.369 272.112 348.245 273.212C348.121 274.311 348.226 275.424 348.554 276.48C350.311 282.176 351.462 288.689 351.462 296.536V400.754C351.462 405.177 355.037 408.782 359.46 408.812H479.735C481.872 408.812 483.922 407.963 485.433 406.452C486.945 404.941 487.794 402.891 487.794 400.754V320.772C487.794 294.052 473.252 278.358 459.316 271.39C445.379 264.422 431.716 264.513 431.716 264.513H367.489C359.46 264.513 358.642 265.422 354.462 266.331V266.301ZM367.761 280.509H431.686C431.686 280.509 441.986 280.661 452.105 285.72C462.224 290.78 471.737 299.262 471.737 320.56V392.665H367.519V296.324C367.519 290.386 366.186 285.69 365.217 280.63C365.732 280.6 367.822 280.267 367.822 280.267L367.761 280.509ZM399.905 152.388C373.427 152.388 351.735 174.019 351.735 200.558C351.735 227.037 373.366 248.729 399.905 248.729C426.384 248.729 448.076 227.098 448.076 200.558C448.076 174.08 426.444 152.388 399.905 152.388ZM399.905 168.415C417.719 168.415 432.019 182.684 432.019 200.528C432.019 218.342 417.75 232.642 399.905 232.642C382.091 232.642 367.792 218.372 367.792 200.528C367.792 182.714 382.061 168.415 399.905 168.415Z" fill="blue"/>
</svg>
