<svg width="512" height="512" viewBox="0 0 512 512" fill="none" xmlns="http://www.w3.org/2000/svg">
<path d="M215.683 444.38H214.907L213.995 440.743C209.63 423.35 205.116 405.365 200.941 387.639C194.485 360.224 187.868 342.728 151.109 332.302L115.575 306.778C109.471 302.394 102.161 300.886 95.266 301.989L71.604 246.135C55.58 208.308 34.753 212.727 28.752 214.982C13.976 220.535 5.302 240.112 10.555 256.055L40.721 347.616C41.039 348.58 41.361 349.569 41.689 350.575C46.616 365.697 52.747 384.516 66.857 394.213L107.989 422.482C112.578 425.635 115.315 429.627 116.603 435.044L118.822 444.374H114.184C109.667 444.374 105.433 446.122 102.262 449.297C99.09 452.472 97.345 456.708 97.35 461.225L97.374 486.176C97.383 495.45 104.935 502.994 114.208 502.994L215.705 503C220.222 503 224.457 501.252 227.628 498.077C230.8 494.902 232.545 490.666 232.54 486.149L232.516 461.198C232.507 451.924 224.956 444.38 215.683 444.38ZM130.223 431.803C128.142 423.054 123.329 416.036 115.918 410.943L74.786 382.674C64.587 375.665 59.271 359.348 55 346.238C54.6742 345.237 54.3469 344.235 54.018 343.235L23.852 251.674C20.711 242.14 26.629 230.736 33.678 228.087C41.822 225.025 51.181 233.815 58.714 251.596L82.459 307.647C80.5155 309.205 78.7939 311.02 77.342 313.044C73.086 318.969 71.395 326.218 72.582 333.455C73.769 340.692 77.685 347.021 83.61 351.277L132.172 386.16C132.918 386.697 133.763 387.081 134.658 387.291C135.553 387.501 136.481 387.532 137.388 387.383C138.295 387.235 139.164 386.909 139.946 386.424C140.727 385.94 141.405 385.306 141.941 384.559C143.024 383.051 143.464 381.175 143.164 379.343C142.863 377.511 141.848 375.873 140.34 374.79L91.777 339.906C88.889 337.832 86.979 334.737 86.397 331.19C85.816 327.643 86.638 324.1 88.712 321.212C93.022 315.213 101.408 313.838 107.407 318.148L143.949 344.396C144.624 344.88 145.379 345.241 146.18 345.461C177.347 354.015 181.516 366.229 187.314 390.849C191.513 408.674 196.039 426.71 200.416 444.152L200.473 444.38L133.213 444.376L130.223 431.803ZM217.725 488.182C217.352 488.555 216.7 489 215.701 489L114.209 488.994C113.458 488.993 112.738 488.694 112.207 488.163C111.676 487.633 111.377 486.913 111.375 486.162L111.351 461.211C111.344 460.837 111.413 460.465 111.553 460.118C111.694 459.771 111.902 459.456 112.167 459.191C112.431 458.926 112.746 458.717 113.093 458.576C113.44 458.436 113.812 458.367 114.186 458.373L209.426 458.379L209.442 458.38L209.464 458.379H215.683C216.434 458.38 217.154 458.679 217.685 459.21C218.216 459.74 218.515 460.46 218.517 461.211L218.541 486.162C218.548 486.536 218.479 486.908 218.339 487.255C218.198 487.602 217.99 487.917 217.725 488.182ZM483.248 214.982C477.248 212.726 456.421 208.307 440.396 246.135L416.734 301.988C409.843 300.886 402.529 302.393 396.425 306.777L360.891 332.302C324.132 342.729 317.515 360.224 311.059 387.639C306.879 405.385 302.36 423.391 297.99 440.804L297.093 444.381H296.318C287.045 444.381 279.493 451.925 279.484 461.199L279.46 486.15C279.456 490.667 281.2 494.903 284.372 498.078C287.544 501.253 291.779 503.001 296.302 503.001L397.793 502.995C407.066 502.995 414.618 495.451 414.627 486.177L414.651 461.226C414.655 456.709 412.911 452.473 409.739 449.298C406.567 446.123 402.332 444.375 397.815 444.375H393.178L395.397 435.044C396.685 429.627 399.422 425.636 404.011 422.482L445.143 394.213C459.254 384.515 465.385 365.695 470.312 350.572C470.64 349.566 470.961 348.578 471.279 347.615L501.445 256.054C506.698 240.112 498.024 220.535 483.248 214.982ZM397.816 458.373C398.809 458.373 399.462 458.818 399.835 459.191C400.208 459.564 400.652 460.217 400.651 461.211L400.627 486.162C400.625 486.913 400.326 487.633 399.795 488.164C399.263 488.695 398.543 488.993 397.792 488.994L296.294 489C295.301 489 294.648 488.555 294.275 488.182C293.902 487.809 293.458 487.156 293.459 486.162L293.483 461.211C293.485 460.46 293.784 459.74 294.315 459.209C294.847 458.678 295.567 458.38 296.318 458.379H302.536L302.558 458.38L302.574 458.379L397.816 458.373ZM488.148 251.674L457.982 343.235C457.66 344.213 457.333 345.215 457.001 346.236C452.73 359.348 447.414 375.666 437.214 382.675L396.082 410.944C388.671 416.038 383.858 423.056 381.777 431.804L378.787 444.375L311.527 444.379L311.569 444.211C315.951 426.75 320.483 408.694 324.686 390.848C330.484 366.229 334.654 354.015 365.82 345.461C366.621 345.241 367.376 344.88 368.051 344.396L404.593 318.147C410.591 313.838 418.978 315.212 423.288 321.212C425.362 324.1 426.184 327.643 425.603 331.19C425.021 334.737 423.111 337.832 420.223 339.907L371.66 374.79C370.907 375.324 370.268 376.001 369.778 376.783C369.288 377.565 368.958 378.436 368.806 379.347C368.654 380.257 368.683 381.188 368.893 382.087C369.102 382.985 369.487 383.834 370.025 384.583C370.564 385.333 371.245 385.968 372.03 386.453C372.815 386.939 373.688 387.264 374.599 387.41C375.51 387.557 376.441 387.522 377.338 387.307C378.236 387.093 379.082 386.703 379.828 386.16L428.39 351.277C434.315 347.021 438.232 340.692 439.418 333.455C440.605 326.218 438.914 318.969 434.658 313.044C433.206 311.02 431.485 309.204 429.541 307.646L453.286 251.596C460.819 233.815 470.179 225.025 478.322 228.087C485.371 230.736 491.29 242.14 488.148 251.674ZM346.534 266.086C367.492 244.416 392.475 209.258 392.475 164.83V51.706C392.475 49.9456 391.812 48.2497 390.617 46.9565C389.423 45.6633 387.785 44.8676 386.03 44.728C349.011 41.784 317.724 24.382 297.997 10.303C296.811 9.45523 295.389 8.99964 293.931 9H218.069C216.611 9 215.189 9.455 214.003 10.302C194.276 24.382 162.99 41.783 125.97 44.727C124.215 44.8666 122.577 45.6623 121.383 46.9555C120.188 48.2487 119.525 49.9446 119.525 51.705V164.83C119.525 209.258 144.508 244.415 165.466 266.086C190.72 292.199 223.887 312.636 254.189 320.755C255.376 321.073 256.626 321.073 257.813 320.755C288.112 312.635 321.28 292.198 346.534 266.086ZM256 306.73C205.286 292.233 133.525 234.247 133.525 164.83V58.033C162.681 54.468 192.505 42.44 220.293 23H291.708C319.496 42.439 349.32 54.467 378.476 58.033V164.83C378.475 234.246 306.714 292.233 256 306.73ZM328.27 114.406H287.237V73.373C287.237 71.5165 286.499 69.736 285.187 68.4233C283.874 67.1105 282.094 66.373 280.237 66.373H231.764C229.907 66.373 228.127 67.1105 226.814 68.4233C225.501 69.736 224.764 71.5165 224.764 73.373V114.406H183.732C181.875 114.406 180.095 115.144 178.782 116.456C177.469 117.769 176.732 119.549 176.732 121.406V169.879C176.732 171.736 177.469 173.516 178.782 174.829C180.095 176.142 181.875 176.879 183.732 176.879H224.764V217.912C224.764 219.769 225.501 221.549 226.814 222.862C228.127 224.174 229.907 224.912 231.764 224.912H280.237C282.094 224.912 283.874 224.174 285.187 222.862C286.499 221.549 287.237 219.769 287.237 217.912V176.879H328.27C330.126 176.879 331.907 176.142 333.22 174.829C334.533 173.516 335.27 171.736 335.27 169.879V121.406C335.27 119.549 334.533 117.769 333.22 116.456C331.907 115.144 330.126 114.406 328.27 114.406ZM321.27 162.879H280.237C278.38 162.879 276.6 163.616 275.287 164.929C273.975 166.242 273.237 168.022 273.237 169.879V210.912H238.764V169.879C238.764 168.022 238.027 166.242 236.714 164.929C235.401 163.616 233.621 162.879 231.764 162.879H190.732V128.406H231.764C233.621 128.406 235.401 127.669 236.714 126.356C238.027 125.043 238.764 123.263 238.764 121.406V80.373H273.237V121.406C273.237 123.263 273.975 125.043 275.287 126.356C276.6 127.669 278.38 128.406 280.237 128.406H321.27V162.879Z" fill="blue"/>
</svg>
