<svg width="512" height="512" viewBox="0 0 512 512" fill="none" xmlns="http://www.w3.org/2000/svg">
<path d="M325.733 130.802H341.066V108.802C341.066 52.9353 295.733 7.60207 239.866 7.60207H234.799C178.933 7.60207 133.6 52.9353 133.6 108.802V130.802H148.933" stroke="blue" stroke-width="13.3333" stroke-miterlimit="10" stroke-linecap="round" stroke-linejoin="round"/>
<path d="M292.533 316.668L297.999 318.935L325.999 330.935L395.866 360.934C412.932 368.534 426.532 382.401 433.599 399.734" stroke="blue" stroke-width="13.3333" stroke-miterlimit="10" stroke-linecap="round" stroke-linejoin="round"/>
<path d="M182.133 316.935L176.933 319.201L148.933 331.335L79.9998 361.335C53.0665 372.668 35.5999 399.068 35.5999 428.268V504.534" stroke="blue" stroke-width="13.3333" stroke-miterlimit="10" stroke-linecap="round" stroke-linejoin="round"/>
<path d="M291.199 324.268C291.866 321.735 292.399 319.201 292.666 316.668C292.933 314.535 293.066 312.401 293.066 310.135V267.202" stroke="blue" stroke-width="13.3333" stroke-miterlimit="10" stroke-linecap="round" stroke-linejoin="round"/>
<path d="M181.733 267.335V310.135C181.733 312.401 181.866 314.668 182.133 316.935C182.4 319.468 182.933 321.868 183.6 324.268" stroke="blue" stroke-width="13.3333" stroke-miterlimit="10" stroke-linecap="round" stroke-linejoin="round"/>
<path d="M343.066 184.002H325.733V130.802H343.066C350.399 130.802 356.399 136.802 356.399 144.135V170.668C356.399 178.002 350.399 184.002 343.066 184.002Z" stroke="blue" stroke-width="13.3333" stroke-miterlimit="10" stroke-linecap="round" stroke-linejoin="round"/>
<path d="M131.6 184.002H148.933V130.802H131.6C124.266 130.802 118.266 136.802 118.266 144.135V170.668C118.266 178.002 124.133 184.002 131.6 184.002Z" stroke="blue" stroke-width="13.3333" stroke-miterlimit="10" stroke-linecap="round" stroke-linejoin="round"/>
<path d="M116 452.934V504.534" stroke="blue" stroke-width="13.3333" stroke-miterlimit="10" stroke-linecap="round" stroke-linejoin="round"/>
<path d="M296.666 89.8686C304.933 92.4019 314.799 98.6686 320.666 109.202C325.599 118.135 325.866 126.669 325.733 130.935V198.668C325.733 247.468 286.133 287.068 237.333 287.068C188.533 287.068 148.933 247.468 148.933 198.668V130.935C149.066 126.535 150 114.669 158.666 104.402C166.533 95.0686 176.4 92.1353 179.866 91.0686C205.199 83.7353 214.533 104.669 243.333 103.202C253.599 102.669 260.799 99.6019 267.199 96.4019" stroke="blue" stroke-width="13.3333" stroke-miterlimit="10" stroke-linecap="round" stroke-linejoin="round"/>
<path d="M210.533 504.534L237.333 365.868L264.133 504.534" stroke="blue" stroke-width="13.3333" stroke-miterlimit="10" stroke-linecap="round" stroke-linejoin="round"/>
<path d="M160.133 350.668L148.8 331.468L176.8 319.335L237.199 365.868L192.4 406.001L173.466 373.601" stroke="blue" stroke-width="13.3333" stroke-miterlimit="10" stroke-linecap="round" stroke-linejoin="round"/>
<path d="M297.999 318.935L237.333 365.734L282.133 405.868L325.999 330.935L297.999 318.935Z" stroke="blue" stroke-width="13.3333" stroke-miterlimit="10" stroke-linecap="round" stroke-linejoin="round"/>
<path d="M462.399 504.534H339.999C332.266 504.534 325.999 498.268 325.999 490.534V413.601C325.999 405.868 332.266 399.601 339.999 399.601H462.399C470.132 399.601 476.399 405.868 476.399 413.601V490.534C476.399 498.268 470.132 504.534 462.399 504.534Z" stroke="blue" stroke-width="13.3333" stroke-miterlimit="10" stroke-linecap="round" stroke-linejoin="round"/>
<path d="M426.399 453.601L447.332 477.334" stroke="blue" stroke-width="13.3333" stroke-miterlimit="10" stroke-linecap="round" stroke-linejoin="round"/>
<path d="M420.399 427.601V477.334" stroke="blue" stroke-width="13.3333" stroke-miterlimit="10" stroke-linecap="round" stroke-linejoin="round"/>
<path d="M447.332 440.534C447.332 447.601 441.066 453.468 433.732 453.468C429.999 453.468 420.666 453.468 420.666 453.468C420.666 453.468 420.666 444.134 420.666 440.534C420.666 437.601 420.666 427.601 420.666 427.601H433.866C441.066 427.601 447.332 433.468 447.332 440.534Z" stroke="blue" stroke-width="13.3333" stroke-miterlimit="10" stroke-linecap="round" stroke-linejoin="round"/>
<path d="M355.866 427.601V477.334" stroke="blue" stroke-width="13.3333" stroke-miterlimit="10" stroke-linecap="round" stroke-linejoin="round"/>
<path d="M390.266 427.601V477.334" stroke="blue" stroke-width="13.3333" stroke-miterlimit="10" stroke-linecap="round" stroke-linejoin="round"/>
<path d="M355.866 451.601H390.266" stroke="blue" stroke-width="13.3333" stroke-miterlimit="10" stroke-linecap="round" stroke-linejoin="round"/>
</svg>
