<svg width="512" height="512" viewBox="0 0 512 512" fill="none" xmlns="http://www.w3.org/2000/svg">
<path d="M463.208 67.488H270.353V60.508C270.353 50.876 262.52 43.042 252.887 43.042H225.882C216.953 43.042 209.65 49.798 208.619 58.454H69.207C68.176 49.798 60.878 43.042 51.949 43.042H24.993C15.361 43.042 7.52699 50.875 7.52699 60.508V198.152C7.52699 207.784 15.36 215.618 24.993 215.618H51.949C60.878 215.618 68.176 208.862 69.207 200.206H105.263V431.816C105.263 450.61 120.577 465.9 139.401 465.9C158.195 465.9 173.485 450.611 173.485 431.816V200.206H200.328V427.747C200.328 450.473 218.813 468.958 241.539 468.958H463.208C485.963 468.958 504.473 450.473 504.473 427.747V108.749C504.473 85.998 485.963 67.488 463.208 67.488ZM54.356 198.151C54.356 199.455 53.253 200.558 51.949 200.558H24.993C24.3547 200.558 23.7426 200.304 23.2913 199.853C22.8399 199.401 22.5863 198.789 22.586 198.151V60.508C22.5863 59.8697 22.8399 59.2576 23.2913 58.8063C23.7426 58.3549 24.3547 58.1013 24.993 58.101H51.949C53.253 58.101 54.356 59.204 54.356 60.508V198.151ZM158.426 431.815C158.426 442.305 149.892 450.84 139.401 450.84C128.881 450.84 120.322 442.306 120.322 431.815V200.21H158.425L158.426 431.815ZM208.411 185.146H69.469V73.513H208.412V185.146H208.411ZM223.47 60.508C223.47 59.204 224.573 58.101 225.882 58.101H252.887C254.191 58.101 255.294 59.204 255.294 60.508V198.152C255.294 199.456 254.191 200.559 252.887 200.559H225.882C224.573 200.559 223.47 199.456 223.47 198.152V60.508ZM489.414 427.747C489.414 442.169 477.659 453.899 463.208 453.899H241.539C227.117 453.899 215.387 442.169 215.387 427.747V212.025C218.318 214.247 221.928 215.618 225.882 215.618H252.887C262.519 215.618 270.353 207.785 270.353 198.152V157.838C273.168 159.09 264.021 158.242 431.389 158.495C435.546 158.495 438.918 155.122 438.918 150.966C438.918 146.81 435.545 143.437 431.389 143.437C263.995 143.689 273.167 142.841 270.353 144.094V82.547H463.208C477.659 82.547 489.414 94.302 489.414 108.748V427.747Z" fill="blue"/>
<path d="M318.329 217.132H386.462C388.459 217.131 390.373 216.338 391.785 214.926C393.197 213.514 393.99 211.6 393.991 209.603C393.99 207.606 393.197 205.692 391.785 204.28C390.373 202.868 388.459 202.075 386.462 202.074H318.329C314.172 202.074 310.8 205.447 310.8 209.603C310.8 213.759 314.172 217.132 318.329 217.132ZM436.271 260.716H268.515C266.518 260.717 264.604 261.51 263.192 262.922C261.78 264.334 260.987 266.248 260.986 268.245C260.987 270.242 261.78 272.156 263.192 273.568C264.604 274.98 266.518 275.773 268.515 275.774H436.272C438.269 275.773 440.184 274.98 441.596 273.568C443.008 272.156 443.801 270.242 443.802 268.245C443.801 266.248 443.007 264.333 441.595 262.922C440.183 261.51 438.268 260.717 436.271 260.716ZM425.688 319.354H279.103C277.106 319.355 275.191 320.148 273.779 321.56C272.367 322.972 271.574 324.886 271.573 326.883C271.574 328.88 272.367 330.795 273.779 332.207C275.191 333.618 277.106 334.412 279.103 334.412H425.688C427.685 334.411 429.6 333.618 431.012 332.206C432.424 330.794 433.217 328.88 433.218 326.883C433.217 324.886 432.424 322.972 431.012 321.56C429.6 320.148 427.685 319.355 425.688 319.354ZM416.727 377.991H288.059C286.062 377.991 284.148 378.785 282.736 380.197C281.324 381.609 280.531 383.523 280.53 385.52C280.531 387.517 281.324 389.431 282.736 390.843C284.148 392.255 286.062 393.048 288.059 393.049H416.727C420.884 393.049 424.257 389.676 424.257 385.52C424.257 381.364 420.884 377.991 416.727 377.991ZM123.043 155.092C123.743 155.794 124.576 156.351 125.492 156.731C126.408 157.111 127.39 157.307 128.381 157.307C129.373 157.307 130.355 157.111 131.271 156.731C132.187 156.351 133.02 155.794 133.72 155.092L174.436 114.195C175.844 112.778 176.632 110.861 176.628 108.864C176.623 106.867 175.826 104.953 174.411 103.543C172.994 102.136 171.077 101.348 169.08 101.353C167.083 101.358 165.169 102.154 163.759 103.568L128.381 139.108L114.097 124.755C111.151 121.814 106.391 121.799 103.445 124.73C102.031 126.14 101.233 128.054 101.229 130.051C101.224 132.048 102.012 133.965 103.42 135.382L123.043 155.092Z" fill="blue"/>
</svg>
