<svg width="512" height="512" viewBox="0 0 512 512" fill="none" xmlns="http://www.w3.org/2000/svg">
<g clip-path="url(#clip0_0_26)">
<path d="M17.0667 443.733H106.411C110.307 443.732 114.153 442.841 117.653 441.129C121.153 439.416 124.216 436.927 126.609 433.852C158.327 445.918 179.763 472.422 200.397 498.304L203.204 501.828C207.894 507.501 214.631 511.096 221.954 511.833C229.278 512.569 236.596 510.388 242.321 505.762C246.365 502.501 249.391 498.152 251.042 493.227C255.497 494.721 260.256 495.067 264.88 494.233C269.504 493.399 273.843 491.413 277.495 488.457C282.268 484.642 285.568 479.288 286.831 473.31C287.684 473.472 288.538 473.6 289.391 473.694C296.634 474.446 303.884 472.325 309.58 467.789C315.277 463.252 318.966 456.662 319.855 449.434C326.992 450.016 334.082 447.845 339.669 443.366C343.89 439.881 346.982 435.221 348.553 429.978C353.923 428.22 359.043 426.422 363.913 424.585C365.335 430.047 368.522 434.886 372.979 438.349C377.436 441.812 382.913 443.705 388.557 443.733H494.933C499.46 443.733 503.801 441.935 507.001 438.735C510.202 435.534 512 431.193 512 426.667V298.667C512 294.14 510.202 289.799 507.001 286.599C503.801 283.398 499.46 281.6 494.933 281.6H393.114C385.222 260.774 371.636 242.585 353.906 229.107C336.177 215.629 315.016 207.405 292.838 205.372C304.094 199.26 313.625 190.406 320.548 179.63C327.471 168.854 331.562 156.505 332.442 143.727C337.52 142.016 341.933 138.754 345.059 134.402C348.185 130.049 349.867 124.825 349.867 119.467V85.3333C349.842 62.7092 340.843 41.0187 324.846 25.021C308.848 9.02328 287.158 0.0248456 264.533 0L247.467 0C224.842 0.0248456 203.152 9.02328 187.154 25.021C171.157 41.0187 162.158 62.7092 162.133 85.3333V119.467C162.133 124.825 163.815 130.049 166.941 134.402C170.067 138.754 174.48 142.016 179.558 143.727C180.44 156.504 184.531 168.853 191.454 179.629C198.376 190.404 207.907 199.259 219.162 205.372C196.983 207.38 175.819 215.596 158.095 229.078C140.37 242.56 126.803 260.763 118.946 281.6H17.0667C12.5403 281.6 8.19933 283.398 4.99871 286.599C1.79809 289.799 0 294.14 0 298.667L0 426.667C0 431.193 1.79809 435.534 4.99871 438.735C8.19933 441.935 12.5403 443.733 17.0667 443.733ZM348.049 412.16C347.072 409.331 345.585 406.705 343.663 404.412C320.241 378.499 294.537 354.744 266.863 333.431C262.086 329.675 256.122 327.752 250.05 328.012C243.979 328.272 238.201 330.697 233.762 334.848L206.387 360.107C203.564 362.581 199.913 363.901 196.161 363.805C192.408 363.708 188.83 362.202 186.138 359.586C183.495 356.701 182.097 352.89 182.247 348.981C182.397 345.071 184.084 341.379 186.94 338.705L226.313 303.462C228.995 301.047 232.316 299.453 235.879 298.872C239.442 298.292 243.097 298.747 246.409 300.186C279.241 314.333 315.183 319.717 350.72 315.81L361.481 407.202C357.214 408.875 352.759 410.513 348.049 412.16ZM494.933 298.667V426.667H388.557C386.451 426.68 384.415 425.915 382.84 424.517C381.264 423.12 380.261 421.19 380.023 419.098L366.967 308.164C366.831 306.968 366.95 305.757 367.315 304.61C367.681 303.463 368.285 302.407 369.087 301.51C369.89 300.613 370.873 299.896 371.973 299.406C373.072 298.916 374.263 298.664 375.467 298.667H494.933ZM179.2 85.3333C179.22 67.2341 186.419 49.882 199.217 37.084C212.015 24.2859 229.367 17.087 247.467 17.0667H264.533C282.633 17.087 299.985 24.2859 312.783 37.084C325.581 49.882 332.78 67.2341 332.8 85.3333V95.3856C332.518 95.2832 332.254 95.1381 331.947 95.0528C330.329 88.0996 326.512 81.8534 321.062 77.2417C315.613 72.63 308.821 69.8985 301.696 69.4528C287.009 69.1275 272.927 63.5372 262.016 53.7003C260.416 52.1005 258.246 51.2018 255.983 51.2018C253.72 51.2018 251.55 52.1005 249.95 53.7003C239.039 63.5372 224.957 69.1275 210.27 69.4528C203.145 69.8985 196.353 72.63 190.904 77.2417C185.454 81.8534 181.637 88.0996 180.019 95.0528C179.729 95.1381 179.465 95.2832 179.166 95.3856L179.2 85.3333ZM196.267 136.533C196.267 134.27 195.368 132.1 193.767 130.499C192.167 128.899 189.997 128 187.733 128C185.47 128 183.3 127.101 181.699 125.501C180.099 123.9 179.2 121.73 179.2 119.467C179.2 117.203 180.099 115.033 181.699 113.433C183.3 111.832 185.47 110.933 187.733 110.933C189.997 110.933 192.167 110.034 193.767 108.434C195.368 106.834 196.267 104.663 196.267 102.4C196.29 98.3273 197.862 94.416 200.664 91.4603C203.466 88.5046 207.288 86.7259 211.354 86.4853C227.444 85.932 242.998 80.5602 256 71.0656C269.002 80.5602 284.556 85.932 300.646 86.4853C304.712 86.7259 308.534 88.5046 311.336 91.4603C314.138 94.416 315.71 98.3273 315.733 102.4C315.733 104.663 316.632 106.834 318.233 108.434C319.833 110.034 322.004 110.933 324.267 110.933C326.53 110.933 328.7 111.832 330.301 113.433C331.901 115.033 332.8 117.203 332.8 119.467C332.8 121.73 331.901 123.9 330.301 125.501C328.7 127.101 326.53 128 324.267 128C322.004 128 319.833 128.899 318.233 130.499C316.632 132.1 315.733 134.27 315.733 136.533C315.733 138.965 314.735 196.267 256 196.267C197.265 196.267 196.267 138.948 196.267 136.533ZM273.067 211.797V213.333C273.067 217.86 271.269 222.201 268.068 225.401C264.867 228.602 260.526 230.4 256 230.4C251.474 230.4 247.133 228.602 243.932 225.401C240.731 222.201 238.933 217.86 238.933 213.333V211.78C250.217 213.851 261.783 213.851 273.067 211.78V211.797ZM223.164 222.174C225.055 229.448 229.307 235.888 235.252 240.486C241.198 245.083 248.501 247.578 256.017 247.578C263.533 247.578 270.836 245.083 276.782 240.486C282.727 235.888 286.979 229.448 288.87 222.174C307.222 223.419 324.893 229.611 340.008 240.092C355.122 250.573 367.116 264.952 374.716 281.702C369.58 281.802 364.599 283.476 360.445 286.497C356.291 289.519 353.164 293.743 351.488 298.598C318.018 302.739 284.049 297.87 253.09 284.493C246.801 281.791 239.87 280.947 233.117 282.06C226.363 283.173 220.07 286.197 214.98 290.773L212.173 293.282C195.581 291.126 178.864 290.074 162.133 290.133C154.76 290.198 147.407 290.937 140.169 292.343C138.882 290.231 137.163 288.413 135.125 287.01C142.089 268.931 154.077 253.22 169.676 241.729C185.274 230.239 203.833 223.448 223.164 222.157V222.174ZM144.922 310.17C144.981 309.7 144.922 309.24 144.922 308.779C150.605 307.775 156.362 307.247 162.133 307.2C173.653 307.2 184.61 307.703 195.038 308.591L175.599 325.973C172.456 328.832 169.916 332.29 168.129 336.144C166.341 339.999 165.342 344.171 165.189 348.417C165.036 352.663 165.734 356.896 167.24 360.869C168.746 364.841 171.031 368.473 173.961 371.55C179.782 377.315 187.588 380.637 195.779 380.833C203.97 381.03 211.926 378.087 218.018 372.608L245.325 347.341C246.792 345.953 248.709 345.139 250.727 345.046C252.744 344.954 254.728 345.59 256.316 346.837C283.137 367.473 308.049 390.478 330.752 415.573C332.286 417.567 332.975 420.083 332.672 422.579C332.57 424.027 332.181 425.441 331.528 426.738C330.874 428.034 329.97 429.188 328.866 430.131C326.658 431.916 323.835 432.756 321.011 432.468C318.186 432.181 315.59 430.789 313.788 428.595C312.674 427.243 311.172 426.266 309.484 425.797C307.796 425.328 306.005 425.39 304.353 425.974C302.702 426.559 301.27 427.637 300.253 429.063C299.236 430.489 298.682 432.194 298.667 433.946C298.664 435.897 299.34 437.788 300.578 439.296C302.361 441.507 303.195 444.334 302.897 447.159C302.6 449.983 301.195 452.575 298.991 454.366C296.871 456.092 294.171 456.941 291.445 456.74C288.719 456.538 286.174 455.301 284.331 453.282L281.95 449.869C280.682 447.994 278.722 446.699 276.5 446.269C274.278 445.84 271.976 446.31 270.101 447.578C268.226 448.845 266.932 450.805 266.502 453.027C266.072 455.249 266.543 457.551 267.81 459.426C269.624 461.716 270.521 464.6 270.326 467.515C270.13 470.43 268.856 473.168 266.752 475.196C265.663 476.099 264.402 476.774 263.046 477.179C261.689 477.583 260.265 477.71 258.859 477.551C256.129 477.298 253.611 475.976 251.853 473.873L246.468 466.876C245.796 465.979 244.954 465.224 243.989 464.653C243.025 464.082 241.958 463.707 240.848 463.548C239.739 463.39 238.609 463.451 237.524 463.729C236.438 464.008 235.418 464.497 234.522 465.169C233.625 465.841 232.87 466.684 232.299 467.648C231.728 468.612 231.353 469.68 231.194 470.789C231.036 471.898 231.097 473.028 231.375 474.114C231.653 475.199 232.143 476.219 232.815 477.116C234.677 479.321 235.591 482.173 235.36 485.051C235.128 487.928 233.768 490.597 231.578 492.476C229.376 494.261 226.561 495.11 223.739 494.841C220.917 494.571 218.314 493.204 216.491 491.034L213.769 487.62C191.582 459.793 168.482 431.3 132.284 417.724L144.922 310.17ZM17.0667 298.667H119.526C120.728 298.667 121.916 298.922 123.012 299.413C124.109 299.905 125.089 300.622 125.889 301.519C126.689 302.416 127.29 303.471 127.654 304.616C128.018 305.761 128.136 306.97 128 308.164L114.944 419.098C114.708 421.191 113.706 423.124 112.13 424.523C110.555 425.922 108.518 426.688 106.411 426.675H17.0667V298.667Z" fill="blue"/>
</g>
<defs>
<clipPath id="clip0_0_26">
<rect width="512" height="512" fill="white"/>
</clipPath>
</defs>
</svg>
