<svg width="452" height="401" viewBox="0 0 452 401" fill="none" xmlns="http://www.w3.org/2000/svg">
<path d="M231.485 167.634C230.539 167.427 229.564 167.394 228.607 167.535C218.99 166.416 211.736 158.28 211.72 148.602C211.72 146.375 210.835 144.239 209.26 142.664C207.685 141.089 205.549 140.204 203.321 140.204C201.094 140.204 198.958 141.089 197.383 142.664C195.808 144.239 194.923 146.375 194.923 148.602C194.948 164.763 205.757 178.919 221.34 183.196V191.594C221.34 193.821 222.225 195.958 223.8 197.533C225.375 199.108 227.511 199.992 229.738 199.992C231.966 199.992 234.102 199.108 235.677 197.533C237.252 195.958 238.136 193.821 238.136 191.594V183.704C256.122 179.939 268.346 163.188 266.456 144.911C264.562 126.634 249.163 112.746 230.788 112.742C220.258 112.742 211.72 104.204 211.72 93.6733C211.72 83.1429 220.258 74.605 230.788 74.605C241.318 74.605 249.856 83.1419 249.856 93.6733C249.856 95.9007 250.741 98.0368 252.316 99.6118C253.891 101.187 256.027 102.072 258.255 102.072C260.482 102.072 262.618 101.187 264.193 99.6118C265.768 98.0368 266.653 95.9007 266.653 93.6733C266.629 76.7046 254.741 62.0685 238.136 58.5664V50.9229C238.136 48.6956 237.252 46.5594 235.677 44.9845C234.102 43.4095 231.966 42.5247 229.738 42.5247C227.511 42.5247 225.375 43.4095 223.8 44.9845C222.225 46.5594 221.34 48.6956 221.34 50.9229V59.0798C204.01 63.8111 192.856 80.6371 195.242 98.4425C197.628 116.248 212.823 129.537 230.788 129.534C241.18 129.534 249.656 137.855 249.844 148.241C250.037 158.629 241.868 167.256 231.485 167.634Z" fill="blue"/>
<path d="M109.005 121.783C109.005 189.043 163.528 243.567 230.788 243.567C298.048 243.567 352.571 189.043 352.571 121.783C352.571 54.5237 298.048 0 230.788 0C163.561 0.0734849 109.083 54.5563 109.005 121.783ZM230.788 16.7966C288.772 16.7966 335.775 63.7996 335.775 121.783C335.775 179.767 288.772 226.77 230.788 226.77C172.804 226.77 125.801 179.767 125.801 121.783C125.867 63.828 172.832 16.8627 230.788 16.7966Z" fill="blue"/>
<path d="M393.972 264.271L328.184 295.355C323.721 287.054 317.148 280.077 309.127 275.128C301.107 270.179 291.923 267.432 282.502 267.166L221.77 265.497C212.152 265.222 202.718 262.786 194.168 258.37L187.989 255.168C172.399 247.042 155.075 242.808 137.494 242.826C119.914 242.845 102.598 247.116 87.0252 255.274L87.4104 241.274C87.4411 240.171 87.2542 239.074 86.8604 238.043C86.4667 237.013 85.8738 236.07 85.1156 235.269C84.3575 234.468 83.449 233.824 82.4419 233.373C81.4348 232.923 80.3489 232.676 79.2463 232.646L12.65 230.814C11.5475 230.784 10.4499 230.971 9.4197 231.365C8.38954 231.758 7.44709 232.351 6.64621 233.11C5.84533 233.868 5.20171 234.777 4.75213 235.784C4.30255 236.791 4.05582 237.877 4.02604 238.979L0.00326348 385.119C-0.0274887 386.221 0.159347 387.32 0.553095 388.35C0.946844 389.381 1.53979 390.324 2.29806 391.125C3.05632 391.926 3.96505 392.57 4.97232 393.021C5.97959 393.471 7.06566 393.718 8.16849 393.748L74.7637 395.581H74.9936C77.1819 395.582 79.284 394.728 80.8526 393.203C82.4212 391.677 83.3322 389.599 83.3919 387.411L83.584 380.42L100.884 371.157C107.672 367.502 115.616 366.633 123.034 368.733L226.347 397.729C226.528 397.782 226.707 397.823 226.893 397.865C234.361 399.427 241.969 400.211 249.598 400.206C265.755 400.216 281.724 396.732 296.408 389.992C296.769 389.827 297.117 389.635 297.449 389.417L447.245 292.526C449.043 291.362 450.328 289.557 450.84 287.477C451.351 285.398 451.049 283.202 449.996 281.338C438.875 261.605 414.208 254.089 393.972 264.271ZM17.0255 377.189L20.5843 247.835L70.3882 249.205L66.8294 378.563L17.0255 377.189ZM288.842 374.99C270.598 383.224 250.223 385.498 230.612 381.491L127.577 352.568C115.984 349.291 103.57 350.648 92.9586 356.353L84.1173 361.089L86.4835 275.084C100.238 265.936 116.196 260.646 132.692 259.766C149.187 258.886 165.617 262.449 180.267 270.082L186.447 273.284C197.247 278.86 209.161 281.938 221.311 282.29L282.047 283.959C299.106 284.451 313.594 296.597 317.055 313.311L226.589 310.814C221.951 310.688 218.092 314.345 217.961 318.979C217.9 321.206 218.726 323.366 220.257 324.984C221.788 326.602 223.899 327.546 226.126 327.607L325.961 330.355H326.196C328.382 330.353 330.482 329.499 332.049 327.973C333.616 326.448 334.526 324.371 334.585 322.185C334.689 318.535 334.417 314.885 333.774 311.29L401.251 279.406C401.317 279.378 401.382 279.346 401.448 279.312C406.122 276.947 411.407 276.069 416.594 276.796C421.78 277.522 426.621 279.819 430.464 283.377L288.842 374.99Z" fill="blue"/>
</svg>
