<svg width="512" height="512" viewBox="0 0 512 512" fill="none" xmlns="http://www.w3.org/2000/svg">
<g clip-path="url(#clip0_0_3)">
<path d="M323.26 50.5003C322.217 47.2909 320.322 44.4249 317.778 42.2081C315.233 39.9914 312.135 38.5071 308.813 37.9136L284.126 33.6384L272.538 10.3595C269.338 3.97653 263.006 0 256 0C248.994 0 242.662 3.97653 239.462 10.368L227.874 33.6469L203.196 37.9221C199.871 38.5107 196.769 39.9931 194.222 42.2104C191.676 44.4278 189.781 47.2964 188.74 50.5088C187.626 53.8074 187.43 57.3468 188.172 60.7484C188.915 64.15 190.568 67.2856 192.956 69.8197L210.705 88.6101L206.933 114.773C206.406 118.255 206.853 121.814 208.227 125.056C209.601 128.298 211.847 131.095 214.716 133.137C217.451 135.084 220.671 136.236 224.021 136.466C227.37 136.697 230.718 135.996 233.694 134.443L255.991 122.829L278.289 134.443C281.265 136.004 284.615 136.708 287.967 136.478C291.32 136.247 294.542 135.091 297.276 133.137C300.145 131.096 302.392 128.299 303.766 125.056C305.14 121.814 305.587 118.255 305.058 114.773L301.286 88.6101L319.036 69.8197C321.423 67.2856 323.077 64.15 323.819 60.7484C324.562 57.3468 324.366 53.8074 323.251 50.5088L323.26 50.5003ZM306.645 58.0949L286.063 79.8891C285.179 80.8221 284.517 81.9433 284.129 83.1685C283.74 84.3937 283.634 85.6911 283.819 86.9632L288.188 117.205C288.358 118.417 287.701 119.014 287.42 119.219C286.822 119.62 286.413 119.424 286.182 119.313L259.942 105.634C258.724 105.003 257.372 104.674 256 104.674C254.628 104.674 253.276 105.003 252.058 105.634L225.818 119.313C225.587 119.433 225.169 119.62 224.58 119.219C224.299 119.014 223.65 118.409 223.812 117.205L228.181 86.9632C228.366 85.6911 228.26 84.3937 227.871 83.1685C227.483 81.9433 226.821 80.8221 225.937 79.8891L205.355 58.0949C205.089 57.8022 204.908 57.4421 204.833 57.0539C204.758 56.6656 204.791 56.2642 204.928 55.8933C205.15 55.2192 205.542 54.8352 206.106 54.7328L235.051 49.7152C237.722 49.2459 240.017 47.5392 241.237 45.1072L254.754 17.9712C254.865 17.7493 255.206 17.0667 256 17.0667C256.794 17.0667 257.143 17.7408 257.246 17.9627L270.763 45.1072C271.983 47.5392 274.27 49.2459 276.949 49.7152L305.903 54.7328C306.449 54.8352 306.842 55.2192 307.072 55.8933C307.211 56.2639 307.245 56.6658 307.17 57.0544C307.095 57.4431 306.913 57.8032 306.645 58.0949ZM169.66 118.767C168.617 115.558 166.722 112.692 164.178 110.475C161.633 108.258 158.535 106.774 155.213 106.18L130.526 101.905L118.938 78.6261C115.755 72.2432 109.423 68.2667 102.409 68.2667C95.3941 68.2667 89.0709 72.2432 85.8709 78.6347L74.2827 101.914L49.6043 106.189C46.2793 106.777 43.1773 108.26 40.6307 110.477C38.0841 112.694 36.1891 115.563 35.1488 118.775C34.0345 122.074 33.8382 125.613 34.5807 129.015C35.3232 132.417 36.9767 135.552 39.3643 138.086L57.1136 156.877L53.3419 183.04C52.814 186.521 53.2619 190.081 54.6358 193.323C56.0097 196.564 58.2558 199.362 61.1243 201.404C63.8595 203.35 67.0799 204.503 70.4292 204.733C73.7785 204.964 77.1264 204.263 80.1024 202.709L102.4 191.095L124.698 202.709C127.673 204.271 131.024 204.975 134.376 204.745C137.728 204.514 140.951 203.358 143.684 201.404C146.553 199.363 148.8 196.565 150.174 193.323C151.548 190.081 151.996 186.521 151.467 183.04L147.695 156.877L165.444 138.086C167.832 135.552 169.485 132.417 170.228 129.015C170.97 125.613 170.774 122.065 169.66 118.767ZM153.045 126.362L132.463 148.156C131.579 149.089 130.917 150.21 130.529 151.435C130.14 152.66 130.034 153.958 130.219 155.23L134.588 185.472C134.758 186.684 134.101 187.281 133.82 187.486C133.222 187.887 132.813 187.699 132.582 187.58L106.342 173.901C105.124 173.27 103.772 172.941 102.4 172.941C101.028 172.941 99.676 173.27 98.4576 173.901L72.2176 187.58C71.9872 187.708 71.5776 187.887 70.9803 187.486C70.6987 187.281 70.0501 186.675 70.2123 185.472L74.5813 155.23C74.766 153.958 74.6599 152.66 74.2712 151.435C73.8825 150.21 73.2213 149.089 72.3371 148.156L51.7547 126.362C51.4887 126.069 51.3083 125.709 51.2331 125.321C51.1578 124.932 51.1907 124.531 51.328 124.16C51.5499 123.486 51.9424 123.102 52.5056 122.999L81.4507 117.982C84.1216 117.513 86.4171 115.806 87.6373 113.374L101.154 86.2379C101.265 86.016 101.606 85.3333 102.4 85.3333C103.194 85.3333 103.543 86.0075 103.646 86.2293L117.163 113.374C118.383 115.806 120.67 117.513 123.349 117.982L152.303 122.999C152.849 123.102 153.242 123.486 153.472 124.16C153.611 124.531 153.645 124.932 153.57 125.321C153.495 125.71 153.313 126.07 153.045 126.362ZM476.86 118.767C475.817 115.558 473.922 112.692 471.378 110.475C468.833 108.258 465.735 106.774 462.413 106.18L437.726 101.905L426.138 78.6261C422.955 72.2432 416.623 68.2667 409.609 68.2667C402.594 68.2667 396.271 72.2432 393.071 78.6347L381.483 101.914L356.804 106.189C353.479 106.777 350.377 108.26 347.831 110.477C345.284 112.694 343.389 115.563 342.349 118.775C341.235 122.074 341.038 125.613 341.781 129.015C342.523 132.417 344.177 135.552 346.564 138.086L364.314 156.877L360.542 183.04C360.014 186.521 360.462 190.081 361.836 193.323C363.21 196.564 365.456 199.362 368.324 201.404C371.06 203.35 374.28 204.503 377.629 204.733C380.979 204.964 384.326 204.263 387.302 202.709L409.6 191.095L431.898 202.709C434.873 204.271 438.224 204.975 441.576 204.745C444.928 204.514 448.151 203.358 450.884 201.404C453.754 199.363 456 196.565 457.374 193.323C458.748 190.081 459.196 186.521 458.667 183.04L454.895 156.877L472.644 138.086C475.032 135.552 476.685 132.417 477.428 129.015C478.17 125.613 477.974 122.065 476.86 118.767ZM460.245 126.362L439.663 148.156C438.779 149.089 438.117 150.21 437.729 151.435C437.34 152.66 437.234 153.958 437.419 155.23L441.788 185.472C441.958 186.684 441.301 187.281 441.02 187.486C440.422 187.887 440.013 187.699 439.782 187.58L413.542 173.901C412.324 173.27 410.972 172.941 409.6 172.941C408.228 172.941 406.876 173.27 405.658 173.901L379.418 187.58C379.196 187.708 378.769 187.887 378.18 187.486C377.899 187.281 377.25 186.675 377.412 185.472L381.781 155.23C381.966 153.958 381.86 152.66 381.471 151.435C381.083 150.21 380.421 149.089 379.537 148.156L358.955 126.362C358.689 126.069 358.508 125.709 358.433 125.321C358.358 124.932 358.391 124.531 358.528 124.16C358.75 123.486 359.142 123.102 359.706 122.999L388.651 117.982C391.322 117.513 393.617 115.806 394.837 113.374L408.354 86.2379C408.465 86.016 408.806 85.3333 409.6 85.3333C410.394 85.3333 410.743 86.0075 410.846 86.2293L424.363 113.374C425.583 115.806 427.87 117.513 430.549 117.982L459.503 122.999C460.049 123.102 460.442 123.486 460.672 124.16C460.811 124.531 460.845 124.932 460.77 125.321C460.695 125.71 460.513 126.07 460.245 126.362ZM256 204.8C114.842 204.8 0 319.642 0 460.8C0 470.212 7.6544 477.867 17.0667 477.867H119.467C128.879 477.867 136.533 470.212 136.533 460.8C136.533 394.923 190.123 341.333 256 341.333C275.797 341.346 295.279 346.282 312.694 355.696C330.109 365.11 344.91 378.708 355.763 395.264C317.705 408.721 288.196 419.584 266.47 428.117C263.055 427.195 259.537 426.707 256 426.667C232.474 426.667 213.333 445.807 213.333 469.333C213.333 492.86 232.474 512 256 512C272.802 512 287.232 502.153 294.187 487.996C316.484 475.853 345.105 459.366 373.897 442.47C374.835 448.512 375.467 454.622 375.467 460.8C375.467 470.212 383.121 477.867 392.533 477.867H494.933C504.346 477.867 512 470.212 512 460.8C512 319.642 397.158 204.8 256 204.8ZM346.257 358.477C323.547 338.395 294.789 326.459 264.533 324.557V222.08C323.977 224.179 377.95 248.073 418.697 286.037L346.257 358.477ZM119.467 460.8H17.0667C17.0667 397.986 41.4635 340.796 81.2373 298.103L153.754 370.62C132.489 394.701 119.467 426.223 119.467 460.8ZM165.82 358.554L93.3035 286.037C134.05 248.081 188.015 224.188 247.467 222.08V324.693C217.236 326.557 188.497 338.475 165.82 358.554ZM437.376 384.947C396.425 409.455 339.695 443.179 298.342 466.21C297.641 455.894 293.195 446.189 285.841 438.921C320.188 425.822 370.022 408.064 437.376 384.947ZM255.991 494.933C241.877 494.933 230.391 483.447 230.391 469.333C230.391 455.219 241.877 443.733 255.991 443.733C270.106 443.733 281.591 455.219 281.591 469.333C281.591 483.447 270.106 494.933 255.991 494.933ZM392.525 460.8C392.525 451.465 391.535 442.214 389.666 433.186C409.728 421.342 429.286 409.677 446.174 399.582C453.845 394.931 456.67 385.707 452.907 377.643C451.167 373.791 448.037 370.739 444.144 369.095C440.25 367.451 435.88 367.338 431.906 368.777C410.223 376.218 390.409 383.095 372.267 389.461C368.157 382.778 363.481 376.46 358.289 370.577L430.746 298.121C470.52 340.813 494.916 398.003 494.916 460.817H392.516L392.525 460.8Z" fill="blue"/>
</g>
<defs>
<clipPath id="clip0_0_3">
<rect width="512" height="512" fill="white"/>
</clipPath>
</defs>
</svg>
