<svg width="512" height="512" viewBox="0 0 512 512" fill="none" xmlns="http://www.w3.org/2000/svg">
<path d="M473.6 509C464.4 509 455.6 505.5 449 499L320.7 370.7L318.6 372.1C285 395 245.7 407.1 205 407.1C164.3 407.1 125.1 395 91.4 372.2C-0.700005 309.5 -24.7 183.6 38 91.5C75.6 36.1 138.2 3 205.2 3C245.7 3 284.9 15.1 318.6 38C410.7 100.6 434.7 226.5 372.1 318.6L370.7 320.7L499.1 449C512.4 462.8 512.4 484.4 499.1 498.2C492.3 505.2 483.3 509 473.6 509ZM356.4 338.5C350.9 344.8 344.9 350.8 338.6 356.3L336.2 358.4L462.9 485.1C465.9 488.1 469.9 489.7 474.1 489.7C478.3 489.7 482.3 488.1 485.3 485.1C491.5 478.9 491.5 468.9 485.3 462.8L358.5 336.2L356.4 338.5ZM205.3 23.1C156.6 23.1 110.9 42.1 76.5 76.5C42.1 110.9 23.1 156.7 23.1 205.3C23.2 305.6 104.9 387.3 205.3 387.5C305.8 387.5 387.5 305.8 387.5 205.3C387.5 104.8 305.7 23.1 205.3 23.1Z" fill="blue"/>
<path d="M128.5 291.9C125.9 291.9 123.4 290.9 121.6 289C119.8 287.2 118.7 284.7 118.7 282.1C118.8 249.7 136.8 220.3 165.7 205.6L169.7 203.5L166.2 200.6C163.4 198.2 160.7 195.6 158.3 192.7C136.8 166.9 140.3 128.3 166.2 106.8C177.1 97.7 191 92.7 205.2 92.7C223.4 92.7 240.5 100.7 252.1 114.7C262.5 127.2 267.4 143 266 159.3C264.5 175.5 256.8 190.2 244.3 200.6L240.8 203.5L244.8 205.6C273.7 220.4 291.7 249.7 291.8 282.2C291.8 287.6 287.4 292 282 292H128.5V291.9ZM205.2 215.1C173.5 215.1 146 237.6 139.6 268.7L138.9 272.3H271.7L271 268.7C265.6 242.4 245.1 221.8 218.8 216.5C214.3 215.5 209.7 215.1 205.2 215.1ZM163.9 154.1C163.9 176.9 182.5 195.5 205.3 195.5C228.1 195.5 246.7 176.9 246.7 154.1C246.7 131.3 228.1 112.7 205.3 112.7C184.8 112.7 167.7 127.7 164.4 147.4L163.9 146.9V154.1Z" fill="blue"/>
</svg>
