<svg width="512" height="512" viewBox="0 0 512 512" fill="none" xmlns="http://www.w3.org/2000/svg">
<g clip-path="url(#clip0_0_10)">
<path d="M317.203 512C316.838 512 316.476 511.976 316.113 511.928L311.512 511.315H180.347C178.138 511.315 176.021 510.431 174.468 508.855C172.916 507.278 172.057 505.145 172.089 502.932L172.774 457.21C172.774 418.221 208.21 400.113 229.665 395.419C237.834 392.573 260.049 392.193 268.71 395.448C290.173 400.178 325.468 418.31 325.468 457.332V503.742C325.469 504.919 325.218 506.082 324.731 507.154C324.244 508.225 323.532 509.179 322.645 509.952C321.14 511.274 319.205 512.002 317.203 512ZM188.73 494.798H308.952V457.331C308.952 421.129 266.363 411.822 264.548 411.444C263.776 411.282 263.031 411.012 262.335 410.642C258.653 409.262 239.577 409.358 235.355 410.903C234.983 411.037 234.085 411.359 233.698 411.431C231.879 411.814 189.29 421.121 189.29 457.322L188.73 494.798ZM248.774 380.218C225.354 380.218 206.302 361.1 206.302 337.589C206.302 314.081 225.355 294.951 248.774 294.951C272.193 294.951 291.246 314.081 291.246 337.589C291.246 361.1 272.194 380.218 248.774 380.218ZM248.774 311.467C234.472 311.467 222.818 323.19 222.818 337.589C222.818 351.984 234.464 363.702 248.774 363.702C263.084 363.702 274.73 351.984 274.73 337.589C274.73 323.189 263.076 311.467 248.774 311.467ZM488.258 512C487.891 512 487.525 511.976 487.161 511.928L482.578 511.315H351.415C350.32 511.316 349.237 511.099 348.227 510.676C347.218 510.254 346.303 509.635 345.535 508.855C344.766 508.074 344.16 507.149 343.752 506.132C343.343 505.115 343.141 504.027 343.157 502.932L343.842 457.21C343.842 418.221 379.277 400.113 400.729 395.419C408.898 392.565 431.112 392.186 439.765 395.456C461.221 400.178 496.515 418.302 496.515 457.331V503.742C496.516 504.92 496.264 506.084 495.777 507.156C495.291 508.229 494.58 509.184 493.693 509.959C492.189 511.277 490.257 512.002 488.258 512ZM359.786 494.798H480V457.331C480 421.129 437.415 411.822 435.596 411.444C434.821 411.282 434.072 411.009 433.375 410.633C429.71 409.271 410.633 409.367 406.411 410.896C406.04 411.036 405.142 411.359 404.754 411.432C402.936 411.814 360.351 421.113 360.351 457.322L359.786 494.798ZM419.83 380.218C396.411 380.218 377.363 361.1 377.363 337.589C377.363 314.081 396.411 294.951 419.83 294.951C443.254 294.951 462.31 314.081 462.31 337.589C462.31 361.1 443.255 380.218 419.831 380.218H419.83ZM419.83 311.467C405.528 311.467 393.879 323.19 393.879 337.589C393.879 351.984 405.52 363.702 419.83 363.702C434.145 363.702 445.794 351.984 445.794 337.589C445.786 323.189 434.145 311.467 419.831 311.467H419.83ZM146.137 512C145.774 512 145.407 511.976 145.036 511.928L140.455 511.315H9.29033C8.1962 511.316 7.11284 511.098 6.10351 510.676C5.09417 510.254 4.17907 509.635 3.41163 508.855C2.64251 508.074 2.03611 507.149 1.62766 506.132C1.2192 505.115 1.01682 504.027 1.03227 502.932L1.71769 457.21C1.71769 418.221 37.153 400.113 58.6085 395.419C66.7665 392.565 88.9879 392.186 97.6454 395.456C119.109 400.178 154.403 418.31 154.403 457.331V503.742C154.404 504.92 154.152 506.085 153.664 507.157C153.177 508.23 152.465 509.185 151.577 509.959C150.07 511.275 148.137 512 146.137 512ZM17.6733 494.798H137.887V457.331C137.887 421.121 95.2981 411.822 93.4834 411.444C92.7075 411.283 91.9591 411.01 91.2619 410.633C87.5923 409.271 68.5161 409.367 64.2994 410.896C63.9278 411.036 63.0287 411.359 62.6374 411.432C60.8227 411.814 18.2338 421.113 18.2338 457.322L17.6733 494.798ZM77.7187 380.218C54.2988 380.218 35.2382 361.1 35.2382 337.589C35.2382 314.081 54.2988 294.951 77.7177 294.951C101.137 294.951 120.19 314.081 120.19 337.589C120.19 361.1 101.139 380.218 77.7187 380.218ZM77.7187 311.467C63.4075 311.467 51.7543 323.19 51.7543 337.589C51.7543 351.984 63.3992 363.702 77.7177 363.702C92.0207 363.702 103.674 351.984 103.674 337.589C103.674 323.189 92.0289 311.467 77.7187 311.467ZM303.5 101.657H320.016V185.798H303.5V101.657ZM336.823 131.875H353.339V185.798H336.823V131.875ZM368.931 106.968H385.447V185.798H368.931V106.968ZM413.218 43.23H429.734V185.798H413.218V43.23Z" fill="blue"/>
<path d="M464.145 222.794H224.191C219.626 222.794 215.933 219.105 215.933 214.536C215.933 209.967 219.626 206.278 224.191 206.278H455.886V16.5161H178.508V166.327C178.508 170.891 174.815 174.585 170.25 174.585C165.682 174.585 161.992 170.891 161.992 166.327V8.25806C161.992 3.68929 165.682 0 170.25 0H464.145C468.713 0 472.403 3.68929 472.403 8.25806V214.536C472.403 219.093 468.713 222.794 464.145 222.794ZM97.7342 106.472C72.193 106.472 51.4157 85.6134 51.4157 59.9639C51.4157 34.3308 72.2013 13.4606 97.7332 13.4606C123.27 13.4606 144.057 34.3185 144.057 59.9639C144.057 85.6052 123.277 106.472 97.7342 106.472ZM97.7342 29.9757C81.3027 29.9757 67.9319 43.4271 67.9319 59.9628C67.9319 76.5037 81.3027 89.9561 97.7332 89.9561C114.17 89.9561 127.541 76.5037 127.541 59.9639C127.541 43.4271 114.17 29.9768 97.7342 29.9768V29.9757Z" fill="blue"/>
<path d="M143.516 281.698H54.6281C53.5433 281.699 52.4688 281.487 51.4663 281.072C50.4638 280.658 49.5529 280.049 48.7858 279.282C48.0187 278.515 47.4104 277.604 46.9959 276.602C46.5814 275.599 46.3687 274.525 46.3701 273.44V260.862C42.4912 262.088 38.362 262.297 34.3794 261.467C23.4963 259.269 15.585 249.317 15.585 237.829V197.829C15.585 175.011 22.3876 153.011 35.2702 134.216C39.7626 127.66 45.7177 122.688 52.4717 119.849C59.3794 116.936 66.8022 115.442 74.2988 115.455H123.649C124.871 115.455 126.092 115.503 127.306 115.604C141.016 116.708 153.891 124.809 161.742 137.273L180.298 166.777L216.971 186.765C229.586 193.644 235.56 208.168 231.186 221.298C228.657 228.862 223.306 234.858 216.104 238.176C209.053 241.446 200.839 241.64 193.613 238.717C193.314 238.6 193.025 238.459 192.754 238.301L151.956 215.987L151.782 273.475C151.77 275.66 150.894 277.75 149.345 279.291C147.796 280.831 145.7 281.697 143.516 281.698ZM62.8862 265.182H135.287L135.467 202.041L135.509 189.158C135.514 186.972 136.387 184.878 137.935 183.335C139.484 181.791 141.581 180.926 143.767 180.927H143.79C145.977 180.933 148.071 181.806 149.614 183.354C151.158 184.902 152.024 186.999 152.024 189.185V189.21L152 197.178L200.186 223.536C203.148 224.629 206.318 224.488 209.177 223.158C212.201 221.77 214.456 219.242 215.52 216.056C217.335 210.613 214.56 204.247 209.068 201.25L170.503 180.233C169.264 179.556 168.219 178.572 167.468 177.375L147.754 146.052C142.665 137.967 134.516 132.742 125.967 132.057C125.194 131.989 124.417 131.955 123.641 131.956H74.2916C68.9959 131.951 63.7528 133.006 58.8717 135.061C55.0421 136.661 51.5902 139.6 48.896 143.532C37.9086 159.581 32.1012 178.35 32.1012 197.815V237.83C32.1012 241.44 34.497 244.645 37.6661 245.283C40.6586 245.883 42.7551 244.645 43.7192 243.85C44.5507 243.171 45.2202 242.314 45.6791 241.343C46.138 240.373 46.3748 239.312 46.3721 238.238V183.302C46.3721 178.738 50.0614 175.044 54.6302 175.044C59.1948 175.044 62.8883 178.738 62.8883 183.302L62.8862 265.182Z" fill="blue"/>
<path d="M203.721 193.064L259.48 110.314L273.17 119.541L217.411 202.291L203.721 193.064Z" fill="blue"/>
</g>
<defs>
<clipPath id="clip0_0_10">
<rect width="512" height="512" fill="white"/>
</clipPath>
</defs>
</svg>
